<svg xmlns="http://www.w3.org/2000/svg" width="1080" height="1080" viewBox="0 0 1080 1080"><path fill="#c59a44" d="M0-2h1080v1080H0z"/><path d="M880 537c-2.2 180-150 324.2-330 322l1.8-151.9a42.4 42.4 0 0 0 1.1-84.2l1.1-90 80.2 1a60.4 60.4 0 0 0 119.3 1.5zM502.4 664.9a42.3 42.3 0 0 0 40.6 42.3l-1.9 151.7c-180.1-2.2-324.2-149.9-322-330l175.1 2.2v.2a36.9 36.9 0 0 0 73.8.7l77.1.9-1.1 89.7a42.3 42.3 0 0 0-41.6 42.3zM884 201.1l-4 326-125.8-1.6c.1-1.3.1-2.7.1-4.1a60.4 60.4 0 1 0-120.7 0 24.4 24.4 0 0 0 .1 2.7l-79.7-1c2.2-180.1 150-324.3 330-322zM549.1 197l-4 326.1-77.5-1a36.9 36.9 0 0 0-72.9-.9L219.1 519c2.2-180 150-324.2 330-322z"/></svg>