<svg xmlns="http://www.w3.org/2000/svg" width="1080" height="1080" viewBox="0 0 1080 1080"><g fill="#fff"><path d="M713.4 502.2a34.9 34.9 0 0 0-69.7 0h-92V194.1c170.2 0 308.2 137.9 308.2 308.1zm-170-307.3L541.5 503l-75.8-.5v-1.1a57.1 57.1 0 1 0-114.1 0v.4l-118.3-.7c1.1-170.2 139.9-307.3 310.1-306.2zm315.5 317.8l-.8 308.2c-170.2-.4-307.8-138.8-307.4-309l93.6.3a34.8 34.8 0 0 0 68.5.2zm-317.2-.7c-.7 170.2-139.3 307.6-309.5 306.8l1.4-308.1 118.3.5a57.1 57.1 0 0 0 113.4.5z"/><circle cx="543.7" cy="676" r="40"/><path d="M349.6 234.8C271.9 174 159.7 187.7 99 265.3l140.6 110zm377.3-8.7l119.9 132.2L979 238.4a178.3 178.3 0 0 0-252.1-12.3zM182.8 957.9h-17.6V841.2h17.6zm98.7-41.6c0 13.5-3.5 24.1-10.4 31.7s-16.6 11.4-29 11.4a40 40 0 0 1-20.6-5.3 35 35 0 0 1-13.7-15 51.6 51.6 0 0 1-4.8-22.8c0-13.5 3.5-24 10.4-31.5s16.6-11.3 29.1-11.3 21.5 3.8 28.5 11.6 10.5 18.1 10.5 31.2zm-60.4 0c0 19.1 7.1 28.7 21.3 28.7s21-9.6 21-28.7-7.1-28.4-21.2-28.4c-7.4 0-12.7 2.4-16.1 7.3s-5 11.9-5 21.1zm68-41.3h19.2l16.9 47a89.2 89.2 0 0 1 5.1 18.9h.6a69 69 0 0 1 2.5-10q1.8-6 19-55.9h19.1L336 968.9c-6.5 17.3-17.2 25.9-32.2 25.9a53.8 53.8 0 0 1-11.4-1.3v-13.9a40.3 40.3 0 0 0 9 .9c8.5 0 14.5-5 18-14.8l3-7.8zm146.8 82.9l-3.5-11.6h-.6c-4 5.1-8 8.5-12.1 10.4s-9.2 2.7-15.6 2.7c-8.1 0-14.5-2.2-19-6.6s-6.9-10.6-6.9-18.7 3.2-15 9.5-19.3 16-6.7 29-7.1l14.4-.5v-4.4c0-5.3-1.3-9.3-3.8-11.9s-6.3-3.9-11.5-3.9a41.4 41.4 0 0 0-12.2 1.8 100.6 100.6 0 0 0-11.2 4.5l-5.7-12.6a58.5 58.5 0 0 1 14.7-5.4 69.8 69.8 0 0 1 15.2-1.8c10.5 0 18.5 2.3 23.9 6.9s8 11.8 8 21.6v55.9zm-26.2-12c6.4 0 11.5-1.8 15.4-5.4s5.8-8.5 5.8-15v-7.2l-10.6.5c-8.3.3-14.4 1.6-18.1 4.1s-5.7 6.3-5.7 11.4 1.1 6.5 3.3 8.6 5.5 3 9.9 3zm81 12h-17.6V841.2h17.6zm60.8-74.4a33.1 33.1 0 0 1 7.7.7l-1.5 14.4a31 31 0 0 0-6.9-.8 20.2 20.2 0 0 0-15.1 6.1c-3.8 4.1-5.8 9.3-5.8 15.8v38.2h-15.5v-73.1h12.2l2 12.9h.8a28.9 28.9 0 0 1 9.5-10.4 23 23 0 0 1 12.6-3.8zm53.2 75.7q-17.1 0-26.7-9.9c-6.4-6.7-9.6-15.8-9.6-27.4s3-21.3 8.9-28.2 14.1-10.2 24.5-10.2 17.3 2.9 22.9 8.8 8.4 13.9 8.4 24.2v8.4h-48.7c.2 7.1 2.1 12.5 5.7 16.3s8.7 5.7 15.3 5.7a56.8 56.8 0 0 0 12-1.2 58.9 58.9 0 0 0 12-4.1v12.7a50 50 0 0 1-11.5 3.8 74 74 0 0 1-13.2 1.1zm-2.9-63.9c-4.9 0-8.9 1.5-11.8 4.7s-4.8 7.6-5.4 13.6h33.2c-.1-6-1.5-10.6-4.4-13.7s-6.7-4.6-11.6-4.6zm98 41.8c0 7.1-2.6 12.6-7.8 16.4s-12.7 5.7-22.3 5.7-17.6-1.5-23.5-4.4v-13.4c8.6 3.9 16.6 5.9 24 5.9 9.5 0 14.3-2.9 14.3-8.6a6.9 6.9 0 0 0-1.6-4.7 18.3 18.3 0 0 0-5.2-3.8 98.3 98.3 0 0 0-10.1-4.5c-8.4-3.2-14.1-6.5-17.1-9.8s-4.4-7.4-4.4-12.6 2.5-11.2 7.5-14.6 11.9-5.2 20.6-5.2a58.1 58.1 0 0 1 24.4 5.2l-5 11.7c-7.9-3.2-14.5-4.9-19.9-4.9-8.2 0-12.3 2.4-12.3 7a7 7 0 0 0 3.2 5.8c2.1 1.6 6.8 3.8 14 6.6a63.6 63.6 0 0 1 13.1 6.4 19.3 19.3 0 0 1 6.1 6.7 19.7 19.7 0 0 1 2 9.1zm46.2 22.1c-11 0-19.4-3.2-25.2-9.7s-8.6-15.7-8.6-27.7 3-21.8 9-28.4 14.7-9.9 26.1-9.9a48.4 48.4 0 0 1 20.8 4.3l-4.7 12.5c-6.6-2.6-12-3.8-16.3-3.8-12.6 0-18.9 8.3-18.9 25.1 0 8.2 1.6 14.4 4.7 18.5s7.8 6.2 13.8 6.2a40.3 40.3 0 0 0 19.7-5.2v13.6a35.8 35.8 0 0 1-8.9 3.5 54.6 54.6 0 0 1-11.5 1zm89.1-1.3l-2.2-9.6h-.8a21.8 21.8 0 0 1-9.2 8 31.7 31.7 0 0 1-13.7 2.9q-13.2 0-19.8-6.6c-4.3-4.4-6.5-11.1-6.5-20v-47.8h15.6v45.1c0 5.6 1.2 9.8 3.5 12.6s5.9 4.2 10.7 4.2c6.6 0 11.3-2 14.4-5.9s4.6-10.4 4.6-19.6v-36.4h15.6v73.1zm66.2 1.3c-11.3 0-20.2-3.3-26.6-9.9s-9.6-15.8-9.6-27.4 2.9-21.3 8.9-28.2 14.1-10.2 24.5-10.2 17.2 2.9 22.8 8.8 8.4 13.9 8.4 24.2v8.4H881c.3 7.1 2.2 12.5 5.8 16.3s8.7 5.7 15.3 5.7a56.8 56.8 0 0 0 12-1.2 63.3 63.3 0 0 0 12-4.1v12.7a50 50 0 0 1-11.5 3.8 75.2 75.2 0 0 1-13.3 1.1zm-2.8-63.9c-4.9 0-8.9 1.5-11.9 4.7s-4.7 7.6-5.3 13.6h33.2c-.1-6-1.6-10.6-4.4-13.7s-6.7-4.6-11.6-4.6z"/></g></svg>