<svg xmlns="http://www.w3.org/2000/svg" width="1080" height="1080" viewBox="0 0 1080 1080"><path fill="#d76c33" d="M1-1h1080v1080H1z"/><path d="M720.3 523a37.1 37.1 0 1 0-74.2 0h-97.9V195c181.2 0 328 146.9 328 328zM539.4 195.8l-2.1 328-80.7-.5v-1.2a60.7 60.7 0 1 0-121.4 0v.5l-125.9-.8c1.1-181.2 148.9-327.1 330.1-326zm335.8 338.4l-.9 328c-181.1-.5-327.6-147.7-327.1-328.9l99.5.3a37.1 37.1 0 0 0 73 .2zm-337.6-.8c-.8 181.2-148.4 327.4-329.5 326.6l1.5-328 126 .5a60.7 60.7 0 0 0 120.6.6z"/><circle cx="539.7" cy="708" r="42.6"/><path d="M333 238.3c-82.6-64.7-202-50.1-266.7 32.6l149.7 117zm401.6-9.2l127.7 140.7L1003 242.1c-70.5-77.7-190.6-83.5-268.4-13z"/></svg>